<svg xmlns="http://www.w3.org/2000/svg" xmlns:svg="http://www.w3.org/2000/svg" id="svg2" width="744.094" height="1052.362" version="1.1"><metadata id="metadata7"/><g id="layer1"><rect style="fill:#f9f9f9;stroke:#000;stroke-opacity:1" id="rect4008" width="580" height="399.286" x="39.286" y="93.076"/><rect style="fill:#e6e6e6;stroke:#000;stroke-width:1.20471764;stroke-opacity:1" id="rect3003" width="201.485" height="46.836" x="68.75" y="124.858"/><text xml:space="preserve" style="font-size:40px;font-style:normal;font-weight:400;line-height:125%;letter-spacing:0;word-spacing:0;fill:#000;fill-opacity:1;stroke:none;font-family:Sans" id="text3773" x="89.137" y="157.367"><tspan id="tspan3777" x="89.137" y="157.367" style="font-size:24px">Configuration</tspan></text><rect style="fill:#e6e6e6;stroke:#000;stroke-width:.92610669;stroke-opacity:1" id="rect3003-7" width="124.419" height="44.821" x="170.733" y="287.994"/><text xml:space="preserve" style="font-size:40px;font-style:normal;font-weight:400;line-height:125%;letter-spacing:0;word-spacing:0;fill:#000;fill-opacity:1;stroke:none;font-family:Sans" id="text3773-2" x="184.386" y="320.507"><tspan id="tspan3777-2" x="184.386" y="320.507" style="font-size:24px">Matcher</tspan></text><rect style="fill:#e6e6e6;stroke:#000;stroke-width:1.08229673;stroke-opacity:1" id="rect3003-8" width="169.944" height="44.816" x="170.196" y="222.189"/><text xml:space="preserve" style="font-size:40px;font-style:normal;font-weight:400;line-height:125%;letter-spacing:0;word-spacing:0;fill:#000;fill-opacity:1;stroke:none;font-family:Sans" id="text3773-6" x="183.553" y="253.941"><tspan id="tspan3777-6" x="183.553" y="253.941" style="font-size:24px">Transformer</tspan></text><flowRoot id="flowRoot3827" xml:space="preserve" style="fill:#000;stroke:none;stroke-opacity:1;stroke-width:1px;stroke-linejoin:miter;stroke-linecap:butt;fill-opacity:1;font-family:Sans;font-style:normal;font-weight:400;font-size:40px;line-height:125%;letter-spacing:0;word-spacing:0"><flowRegion id="flowRegion3829"><rect id="rect3831" width="449.518" height="148.492" x="63.64" y="327.073"/></flowRegion><flowPara id="flowPara3833"/></flowRoot><rect style="fill:#e6e6e6;stroke:#000;stroke-width:1.33100724;stroke-opacity:1" id="rect3003-77" width="256.863" height="44.844" x="170.974" y="352.885"/><text xml:space="preserve" style="font-size:40px;font-style:normal;font-weight:400;line-height:125%;letter-spacing:0;word-spacing:0;fill:#000;fill-opacity:1;stroke:none;font-family:Sans" id="text3773-65" x="262.386" y="384.651"><tspan id="tspan3777-9" x="262.386" y="384.651" style="font-size:24px">Wire</tspan></text><rect style="fill:#e6e6e6;stroke:#000;stroke-width:.98108965;stroke-opacity:1" id="rect3003-4" width="140.387" height="44.58" x="169.717" y="422.087"/><text xml:space="preserve" style="font-size:40px;font-style:normal;font-weight:400;line-height:125%;letter-spacing:0;word-spacing:0;fill:#000;fill-opacity:1;stroke:none;font-family:Sans" id="text3773-1" x="191.376" y="452.332"><tspan id="tspan3777-0" x="191.376" y="452.332" style="font-size:24px">Reporter</tspan></text><path style="fill:none;stroke:#000;stroke-width:1px;stroke-linecap:butt;stroke-linejoin:miter;stroke-opacity:1" id="path3861" d="m 109.09647,171.50916 -3.03045,251.52799"/><path style="fill:none;stroke:#000;stroke-width:1px;stroke-linecap:butt;stroke-linejoin:miter;stroke-opacity:1" id="path3883" d="m 108.5914,209.89496 c -2.6786,38.49651 31.13579,32.82996 63.63961,32.82996"/><path style="fill:none;stroke:#000;stroke-width:1px;stroke-linecap:butt;stroke-linejoin:miter;stroke-opacity:1" id="path3887" d="m 107.83378,290.45462 c 6.7017,28.4361 35.20502,19.95052 62.37692,19.95052"/><path style="fill:none;stroke:#000;stroke-width:1px;stroke-linecap:butt;stroke-linejoin:miter;stroke-opacity:1" id="path3889" d="m 106.82363,356.87216 c 0.96869,28.85926 47.81281,24.76991 64.14469,22.72843"/><path style="fill:none;stroke:#000;stroke-width:1px;stroke-linecap:butt;stroke-linejoin:miter;stroke-opacity:1" id="path3891" d="m 106.06602,422.53208 c -0.055,7.33525 1.09538,12.73208 5.65453,16.25449 12.92349,9.98471 45.91366,5.46378 59.5003,5.46378"/><path style="fill:none;stroke:#000;stroke-width:1px;stroke-linecap:butt;stroke-linejoin:miter;stroke-opacity:1" id="path3895" d="m 171.22086,232.62339 c -4.16671,1.19049 -8.1103,5.00302 -13.13199,9.59645 1.91959,5.45887 9.18766,6.96803 14.14214,9.09137"/><path style="fill:none;stroke:#000;stroke-width:1px;stroke-linecap:butt;stroke-linejoin:miter;stroke-opacity:1" id="path3895-7" d="m 170.21071,301.04093 c -4.16671,1.19049 -8.1103,5.00302 -13.13199,9.59645 1.91959,5.45887 9.18766,6.96803 14.14214,9.09137"/><path style="fill:none;stroke:#000;stroke-width:1px;stroke-linecap:butt;stroke-linejoin:miter;stroke-opacity:1" id="path3895-5" d="m 171.20056,370.23637 c -4.16671,1.19049 -7.22642,5.63437 -12.24811,10.2278 1.91959,5.45887 8.30378,6.33668 13.25826,8.46002"/><path style="fill:none;stroke:#000;stroke-width:1px;stroke-linecap:butt;stroke-linejoin:miter;stroke-opacity:1" id="path3895-72" d="m 169.66502,434.90644 c -4.16671,1.19049 -8.1103,5.00302 -13.13199,9.59645 1.91959,5.45887 9.18766,6.96803 14.14214,9.09137"/><path style="fill:none;stroke:#000;stroke-width:1px;stroke-linecap:butt;stroke-linejoin:miter;stroke-opacity:1" id="path3966" d="m 296.47977,312.42544 c 19.38993,-1.69969 29.51664,10.42483 27.7792,39.39595"/><rect style="fill:#e6e6e6;stroke:#000;stroke-width:1.14324963;stroke-opacity:1" id="rect3003-8-2" width="189.883" height="44.756" x="408.85" y="222.367"/><text xml:space="preserve" style="font-size:40px;font-style:normal;font-weight:400;line-height:125%;letter-spacing:0;word-spacing:0;fill:#000;fill-opacity:1;stroke:none;font-family:Sans" id="text3773-6-7" x="422.177" y="254.089"><tspan id="tspan3777-6-6" x="422.177" y="254.089" style="font-size:24px">WiredTransf</tspan></text><path style="fill:none;stroke:#000;stroke-width:1px;stroke-linecap:butt;stroke-linejoin:miter;stroke-opacity:1" id="path4000" d="m 338.4011,244.24015 c 22.28372,-4.10751 47.44283,2.38598 67.68022,-0.50508"/><path style="fill:none;stroke:#000;stroke-width:1px;stroke-linecap:butt;stroke-linejoin:miter;stroke-opacity:1" id="path4002" d="m 410.12193,233.12847 c -2.77301,4.15952 -8.56983,7.2794 -13.13198,10.10152 5.61509,3.1077 6.82269,6.8227 10.6066,10.60661"/><path style="fill:none;stroke:#000;stroke-width:1px;stroke-linecap:butt;stroke-linejoin:miter;stroke-opacity:1" id="path4004" d="m 428.80976,365.45845 c 6.02594,3.55424 24.00652,2.52539 31.31473,2.52539 50.55328,0 30.86923,-45.66821 35.86041,-100.00511"/><path style="fill:none;stroke:#000;stroke-width:1px;stroke-linecap:butt;stroke-linejoin:miter;stroke-opacity:1" id="path4006" d="m 480.83261,267.47365 c 2.8737,4.37537 8.42643,11.09144 13.63706,11.61676 4.62436,-3.97484 11.05186,-6.3932 14.14214,-10.10153"/><text xml:space="preserve" style="font-size:40px;font-style:normal;font-weight:400;line-height:125%;letter-spacing:0;word-spacing:0;fill:#000;fill-opacity:1;stroke:none;font-family:Sans" id="text4010" x="460.286" y="124.934"><tspan id="tspan4012" x="460.286" y="124.934" style="font-size:28px;font-style:normal;font-variant:normal;font-weight:400;font-stretch:normal;font-family:Monospace;-inkscape-font-specification:Monospace">MatchConf</tspan><tspan id="tspan4014" x="460.286" y="159.934" style="font-size:28px;font-style:normal;font-variant:normal;font-weight:400;font-stretch:normal;font-family:Monospace;-inkscape-font-specification:Monospace">Datamodel</tspan></text><text xml:space="preserve" style="font-size:40px;font-style:normal;font-weight:400;line-height:125%;letter-spacing:0;word-spacing:0;fill:#000;fill-opacity:1;stroke:none;font-family:Sans" id="text4016" x="341.714" y="478.791"><tspan id="tspan4018" x="341.714" y="478.791" style="font-size:24px;font-style:normal;font-variant:normal;font-weight:400;font-stretch:normal;font-family:Monospace;-inkscape-font-specification:Monospace">(logical Relations)</tspan></text><path style="fill:none;stroke:#000;stroke-width:1;stroke-linecap:butt;stroke-linejoin:miter;stroke-opacity:1;stroke-miterlimit:4;stroke-dasharray:4,1;stroke-dashoffset:0" id="path3033" d="m 430.32498,388.18689 c 45.96148,1.65399 81.41529,-2.77205 96.71982,-24.27933 10.81403,-15.19683 7.51793,-36.40085 9.3462,-61.07856 0.81327,-10.97746 -1.06977,-26.30783 1.51523,-35.35534"/><path style="fill:none;stroke:#000;stroke-width:1px;stroke-linecap:butt;stroke-linejoin:miter;stroke-opacity:1" id="path3035" d="m 526.28948,268.48381 c 0.94121,-0.34475 5.87032,4.75534 10.10152,7.57614 5.85843,-0.65284 8.0983,-3.97822 12.62691,-6.56599"/></g></svg>